<?xml version="1.0" encoding="UTF-8" standalone="no"?>
<svg
   xmlns:dc="http://purl.org/dc/elements/1.1/"
   xmlns:cc="http://creativecommons.org/ns#"
   xmlns:rdf="http://www.w3.org/1999/02/22-rdf-syntax-ns#"
   xmlns:svg="http://www.w3.org/2000/svg"
   xmlns="http://www.w3.org/2000/svg"
   viewBox="0 0 46.931999 59.728001"
   height="59.728001"
   width="46.931999"
   xml:space="preserve"
   id="svg2"
   version="1.1"><metadata
     id="metadata8"><rdf:RDF><cc:Work
         rdf:about=""><dc:format>image/svg+xml</dc:format><dc:type
           rdf:resource="http://purl.org/dc/dcmitype/StillImage" /></cc:Work></rdf:RDF></metadata><defs
     id="defs6"><clipPath
       id="clipPath26"
       clipPathUnits="userSpaceOnUse"><path
         id="path24"
         d="M 0,44.796 H 35.199 V 0 H 0 Z" /></clipPath></defs><g
     transform="matrix(1.3333333,0,0,-1.3333333,0,59.728)"
     id="g10"><g
       transform="translate(25.5968,39.668)"
       id="g12"><path
         id="path14"
         style="fill:#9debde;fill-opacity:1;fill-rule:nonzero;stroke:none"
         d="M 0,0 8.469,-8.469 H 0 Z" /></g><g
       transform="translate(0,44.7957)"
       id="g16"><path
         id="path18"
         style="fill:#9debde;fill-opacity:1;fill-rule:nonzero;stroke:none"
         d="m 0,0 v -40.796 h 2.398 v 38.398 h 22.73 l 6.071,-6.069 V 0 Z" /></g><g
       id="g20"><g
         clip-path="url(#clipPath26)"
         id="g22"><g
           transform="translate(29.9972,25.4019)"
           id="g28"><path
             id="path30"
             style="fill:#9debde;fill-opacity:1;fill-rule:nonzero;stroke:none"
             d="m 0,0 h -12.801 c -0.441,0 -0.801,0.355 -0.801,0.796 0,0.446 0.36,0.801 0.801,0.801 H 0 C 0.441,1.597 0.801,1.242 0.801,0.796 0.801,0.355 0.441,0 0,0 m 0,-8.801 h -12.801 c -0.441,0 -0.801,0.356 -0.801,0.801 0,0.441 0.36,0.796 0.801,0.796 H 0 c 0.441,0 0.801,-0.355 0.801,-0.796 0,-0.445 -0.36,-0.801 -0.801,-0.801 m 0,-8.801 h -12.801 c -0.441,0 -0.801,0.359 -0.801,0.801 0,0.442 0.36,0.801 0.801,0.801 L 0,-16 c 0.441,0 0.801,-0.359 0.801,-0.801 0,-0.442 -0.36,-0.801 -0.801,-0.801 m -14.703,20.176 -4,-3.199 c -0.145,-0.118 -0.32,-0.176 -0.496,-0.176 -0.207,0 -0.41,0.078 -0.567,0.234 l -1.601,1.598 c -0.313,0.312 -0.313,0.82 0,1.133 0.312,0.312 0.82,0.312 1.133,0 l 1.093,-1.094 3.442,2.754 c 0.344,0.273 0.847,0.219 1.121,-0.125 0.277,-0.344 0.223,-0.848 -0.125,-1.125 m 0,-8.801 -4,-3.199 c -0.145,-0.117 -0.32,-0.176 -0.496,-0.176 -0.207,0 -0.41,0.079 -0.567,0.234 l -1.601,1.602 c -0.313,0.312 -0.313,0.816 0,1.129 0.312,0.312 0.82,0.312 1.133,0 l 1.093,-1.093 3.442,2.753 c 0.344,0.277 0.847,0.219 1.121,-0.125 0.277,-0.343 0.223,-0.848 -0.125,-1.125 m 0,-8.8 -4,-3.2 c -0.145,-0.117 -0.32,-0.175 -0.496,-0.175 -0.207,0 -0.41,0.077 -0.567,0.234 l -1.601,1.602 c -0.313,0.312 -0.313,0.816 0,1.128 0.312,0.313 0.82,0.313 1.133,0 l 1.093,-1.094 3.442,2.755 c 0.344,0.277 0.847,0.222 1.121,-0.125 0.277,-0.345 0.223,-0.848 -0.125,-1.125 m 8.706,19.222 v 11.199 h -20 V -25.402 H 5.202 V 4.195 Z" /></g></g></g></g></svg>
