<?xml version="1.0" encoding="UTF-8" standalone="no"?>
<svg
   xmlns:dc="http://purl.org/dc/elements/1.1/"
   xmlns:cc="http://creativecommons.org/ns#"
   xmlns:rdf="http://www.w3.org/1999/02/22-rdf-syntax-ns#"
   xmlns:svg="http://www.w3.org/2000/svg"
   xmlns="http://www.w3.org/2000/svg"
   viewBox="0 0 53.367332 66.225067"
   height="66.225067"
   width="53.367332"
   xml:space="preserve"
   id="svg2"
   version="1.1"><metadata
     id="metadata8"><rdf:RDF><cc:Work
         rdf:about=""><dc:format>image/svg+xml</dc:format><dc:type
           rdf:resource="http://purl.org/dc/dcmitype/StillImage" /></cc:Work></rdf:RDF></metadata><defs
     id="defs6"><clipPath
       id="clipPath18"
       clipPathUnits="userSpaceOnUse"><path
         id="path16"
         d="M 0,49.669 H 40.026 V 0 H 0 Z" /></clipPath></defs><g
     transform="matrix(1.3333333,0,0,-1.3333333,0,66.225067)"
     id="g10"><g
       id="g12"><g
         clip-path="url(#clipPath18)"
         id="g14"><g
           transform="translate(32.074,41.6708)"
           id="g20"><path
             id="path22"
             style="fill:none;stroke:#9debde;stroke-width:1.75;stroke-linecap:butt;stroke-linejoin:miter;stroke-miterlimit:10;stroke-dasharray:none;stroke-opacity:1"
             d="m 0,0 h -11.199 -20 V -40.795 H 0 v 29.596 z" /></g><g
           transform="translate(19.3777,8.6752)"
           id="g24"><path
             id="path26"
             style="fill:#9debde;fill-opacity:1;fill-rule:nonzero;stroke:none"
             d="m 0,0 h -12.801 c -0.441,0 -0.802,0.358 -0.802,0.801 0,0.441 0.361,0.801 0.802,0.801 H 0 c 0.44,0 0.801,-0.36 0.801,-0.801 C 0.801,0.358 0.44,0 0,0" /></g><g
           transform="translate(26.2566,16.7387)"
           id="g28"><path
             id="path30"
             style="fill:#9debde;fill-opacity:1;fill-rule:nonzero;stroke:none"
             d="m 0,0 h -19.564 c -0.442,0 -0.801,0.354 -0.801,0.801 0,0.441 0.359,0.796 0.801,0.796 H 0 C 0.441,1.597 0.801,1.242 0.801,0.801 0.801,0.354 0.441,0 0,0" /></g><g
           transform="translate(26.2566,24.7993)"
           id="g32"><path
             id="path34"
             style="fill:#9debde;fill-opacity:1;fill-rule:nonzero;stroke:none"
             d="m 0,0 h -19.564 c -0.442,0 -0.801,0.355 -0.801,0.796 0,0.446 0.359,0.801 0.801,0.801 H 0 C 0.441,1.597 0.801,1.242 0.801,0.796 0.801,0.355 0.441,0 0,0" /></g><g
           transform="translate(26.2566,32.8603)"
           id="g36"><path
             id="path38"
             style="fill:#9debde;fill-opacity:1;fill-rule:nonzero;stroke:none"
             d="m 0,0 h -19.564 c -0.442,0 -0.801,0.355 -0.801,0.796 0,0.446 0.359,0.801 0.801,0.801 H 0 C 0.441,1.597 0.801,1.242 0.801,0.796 0.801,0.355 0.441,0 0,0" /></g><g
           transform="translate(22.9217,9.475)"
           id="g40"><path
             id="path42"
             style="fill:#9debde;fill-opacity:1;fill-rule:evenodd;stroke:none"
             d="m 0,0 -0.282,-0.954 0.99,0.097 z" /></g><g
           transform="translate(23.2967,10.85)"
           id="g44"><path
             id="path46"
             style="fill:#9debde;fill-opacity:1;fill-rule:evenodd;stroke:none"
             d="m 0,0 -0.314,-1.154 0.855,-1.061 1.301,0.123 C 1.806,-1.521 1.649,-1.061 1.368,-0.733 1.066,-0.377 0.596,-0.122 0,0" /></g><g
           transform="translate(23.4187,11.2914)"
           id="g48"><path
             id="path50"
             style="fill:#9debde;fill-opacity:1;fill-rule:evenodd;stroke:none"
             d="M 0,0 -0.069,-0.271 C 0.577,-0.4 1.048,-0.655 1.396,-1.045 1.693,-1.426 1.874,-1.891 1.903,-2.511 l 0.155,0.001 14.548,11.983 -2.055,2.508 z" /></g><g
           transform="translate(25.4607,48.7939)"
           id="g52"><path
             id="path54"
             style="fill:none;stroke:#9debde;stroke-width:1.75;stroke-linecap:butt;stroke-linejoin:miter;stroke-miterlimit:10;stroke-dasharray:none;stroke-opacity:1"
             d="M 0,0 H -20 V -7.123 H -4.586 6.613 v -11.199 -22.474 h 4.586 V -11.199 0 Z" /></g></g></g></g></svg>
