<?xml version="1.0" encoding="UTF-8" standalone="no"?>
<svg
   xmlns:dc="http://purl.org/dc/elements/1.1/"
   xmlns:cc="http://creativecommons.org/ns#"
   xmlns:rdf="http://www.w3.org/1999/02/22-rdf-syntax-ns#"
   xmlns:svg="http://www.w3.org/2000/svg"
   xmlns="http://www.w3.org/2000/svg"
   viewBox="0 0 66.048798 63.304001"
   height="63.304001"
   width="66.048798"
   xml:space="preserve"
   id="svg2"
   version="1.1"><metadata
     id="metadata8"><rdf:RDF><cc:Work
         rdf:about=""><dc:format>image/svg+xml</dc:format><dc:type
           rdf:resource="http://purl.org/dc/dcmitype/StillImage" /></cc:Work></rdf:RDF></metadata><defs
     id="defs6"><clipPath
       id="clipPath18"
       clipPathUnits="userSpaceOnUse"><path
         id="path16"
         d="M 0,47.478 H 49.537 V 0 H 0 Z" /></clipPath></defs><g
     transform="matrix(1.3333333,0,0,-1.3333333,0,63.304)"
     id="g10"><g
       id="g12"><g
         clip-path="url(#clipPath18)"
         id="g14"><g
           transform="translate(37.7876,15.2111)"
           id="g20"><path
             id="path22"
             style="fill:#9debde;fill-opacity:1;fill-rule:nonzero;stroke:none"
             d="m 0,0 c -2.799,0 -5.072,2.273 -5.072,5.072 0,2.798 2.273,5.072 5.072,5.072 2.798,0 5.072,-2.274 5.072,-5.072 C 5.072,2.273 2.798,0 0,0 m 10.546,7.536 -1.65,0.28 C 8.725,8.371 8.503,8.906 8.233,9.417 l 0.973,1.36 c 0.412,0.579 0.348,1.369 -0.158,1.87 L 7.585,14.11 c -0.274,0.275 -0.638,0.428 -1.026,0.428 -0.304,0 -0.594,-0.094 -0.839,-0.27 L 4.355,13.295 c -0.53,0.28 -1.085,0.511 -1.66,0.683 L 2.42,15.608 C 2.302,16.31 1.699,16.821 0.987,16.821 H -1.08 c -0.712,0 -1.316,-0.511 -1.434,-1.213 l -0.285,-1.67 c -0.55,-0.171 -1.085,-0.397 -1.596,-0.672 l -1.35,0.972 c -0.245,0.177 -0.54,0.27 -0.844,0.27 -0.388,0 -0.756,-0.152 -1.026,-0.427 L -9.083,12.618 C -9.584,12.117 -9.653,11.327 -9.24,10.747 L -8.258,9.368 C -8.529,8.852 -8.745,8.317 -8.912,7.762 l -1.63,-0.275 C -11.244,7.37 -11.754,6.766 -11.754,6.054 V 3.986 c 0,-0.711 0.51,-1.315 1.212,-1.433 l 1.67,-0.285 C -8.7,1.718 -8.475,1.183 -8.199,0.672 l -0.968,-1.345 c -0.412,-0.579 -0.349,-1.369 0.157,-1.87 l 1.463,-1.463 c 0.276,-0.276 0.639,-0.428 1.026,-0.428 0.305,0 0.595,0.094 0.84,0.27 l 1.38,0.982 c 0.496,-0.26 1.016,-0.471 1.551,-0.638 l 0.275,-1.65 c 0.118,-0.702 0.722,-1.213 1.434,-1.213 h 2.072 c 0.712,0 1.316,0.511 1.433,1.213 l 0.28,1.65 c 0.555,0.172 1.09,0.393 1.601,0.663 l 1.36,-0.972 c 0.245,-0.177 0.54,-0.27 0.844,-0.27 0.388,0 0.752,0.152 1.027,0.427 l 1.463,1.463 c 0.501,0.501 0.569,1.291 0.157,1.87 L 8.224,0.727 c 0.27,0.515 0.496,1.05 0.662,1.6 l 1.65,0.275 c 0.702,0.118 1.213,0.722 1.213,1.434 v 2.067 c 0.01,0.711 -0.501,1.315 -1.203,1.433" /></g><g
           transform="translate(14.6601,26.4982)"
           id="g24"><path
             id="path26"
             style="fill:#9debde;fill-opacity:1;fill-rule:nonzero;stroke:none"
             d="m 0,0 c -3.49,0 -6.326,2.835 -6.326,6.326 0,3.49 2.836,6.325 6.326,6.325 3.491,0 6.326,-2.835 6.326,-6.325 C 6.326,2.835 3.491,0 0,0 m 13.154,9.4 -2.058,0.349 c -0.214,0.692 -0.49,1.359 -0.826,1.996 l 1.212,1.696 c 0.514,0.723 0.435,1.709 -0.196,2.333 L 9.461,17.6 c -0.342,0.342 -0.796,0.532 -1.28,0.532 -0.379,0 -0.741,-0.116 -1.047,-0.337 L 5.432,16.583 c -0.661,0.349 -1.353,0.637 -2.07,0.851 l -0.343,2.033 c -0.147,0.876 -0.9,1.513 -1.788,1.513 h -2.578 c -0.888,0 -1.641,-0.637 -1.788,-1.513 L -3.49,17.385 c -0.686,-0.214 -1.354,-0.496 -1.99,-0.839 l -1.685,1.213 c -0.306,0.22 -0.673,0.337 -1.053,0.337 -0.484,0 -0.943,-0.19 -1.28,-0.534 l -1.831,-1.824 c -0.625,-0.625 -0.711,-1.611 -0.196,-2.333 l 1.225,-1.721 c -0.337,-0.643 -0.606,-1.31 -0.814,-2.003 L -13.147,9.339 C -14.023,9.191 -14.66,8.438 -14.66,7.55 V 4.972 c 0,-0.888 0.637,-1.641 1.513,-1.788 l 2.082,-0.355 c 0.214,-0.685 0.496,-1.353 0.838,-1.99 l -1.206,-1.678 c -0.514,-0.723 -0.435,-1.708 0.196,-2.333 l 1.825,-1.825 c 0.343,-0.343 0.796,-0.533 1.28,-0.533 0.379,0 0.741,0.116 1.047,0.337 l 1.721,1.225 c 0.618,-0.325 1.267,-0.588 1.935,-0.796 l 0.343,-2.058 c 0.147,-0.876 0.9,-1.512 1.788,-1.512 h 2.584 c 0.888,0 1.641,0.636 1.788,1.512 l 0.349,2.058 c 0.692,0.214 1.36,0.49 1.996,0.826 L 7.116,-5.15 c 0.306,-0.221 0.674,-0.337 1.053,-0.337 0.484,0 0.937,0.19 1.28,0.533 l 1.825,1.825 c 0.624,0.624 0.71,1.61 0.196,2.333 l -1.213,1.702 c 0.337,0.643 0.619,1.311 0.827,1.996 l 2.058,0.344 c 0.876,0.146 1.512,0.9 1.512,1.788 V 7.612 C 14.667,8.5 14.03,9.253 13.154,9.4" /></g><g
           transform="translate(19.3974,3.6809)"
           id="g28"><path
             id="path30"
             style="fill:#9debde;fill-opacity:1;fill-rule:nonzero;stroke:none"
             d="M 0,0 C -3.001,0.229 -5.257,2.856 -5.028,5.857 -4.8,8.858 -2.172,11.114 0.829,10.886 3.83,10.657 6.086,8.029 5.857,5.028 5.629,2.027 3.001,-0.229 0,0 M 8.205,2.018 7.271,2.656 C 7.517,3.264 7.686,3.913 7.764,4.593 L 8.893,4.705 C 9.378,4.753 9.734,5.186 9.686,5.672 L 9.551,7.033 C 9.508,7.466 9.159,7.796 8.739,7.828 8.688,7.832 8.636,7.831 8.584,7.826 L 7.458,7.715 C 7.25,8.356 6.958,8.962 6.591,9.517 l 0.792,0.81 c 0.342,0.349 0.336,0.909 -0.014,1.251 l -0.977,0.956 c -0.155,0.151 -0.351,0.234 -0.551,0.249 -0.252,0.02 -0.51,-0.069 -0.7,-0.263 L 4.349,11.71 c -0.559,0.352 -1.17,0.631 -1.821,0.825 l 0.086,1.129 c 0.037,0.487 -0.328,0.912 -0.815,0.949 l -1.363,0.104 c -0.488,0.037 -0.913,-0.328 -0.95,-0.815 L -0.6,12.773 c -0.673,-0.092 -1.319,-0.276 -1.925,-0.539 l -0.66,0.92 c -0.159,0.221 -0.4,0.347 -0.652,0.367 -0.201,0.015 -0.407,-0.038 -0.583,-0.164 l -1.111,-0.796 c -0.397,-0.285 -0.488,-0.838 -0.203,-1.235 l 0.66,-0.921 C -5.52,9.913 -5.901,9.358 -6.203,8.755 L -7.299,9.036 C -7.351,9.049 -7.402,9.058 -7.453,9.061 -7.873,9.093 -8.268,8.82 -8.376,8.398 L -8.715,7.074 C -8.836,6.601 -8.551,6.118 -8.077,5.997 L -6.979,5.716 C -7.005,5.031 -6.936,4.364 -6.784,3.727 L -7.804,3.236 C -8.245,3.025 -8.431,2.497 -8.219,2.057 l 0.592,-1.234 c 0.141,-0.295 0.426,-0.475 0.731,-0.499 0.149,-0.012 0.304,0.015 0.449,0.085 l 1.022,0.49 c 0.41,-0.526 0.89,-0.997 1.428,-1.397 L -4.463,-1.53 c -0.202,-0.446 -0.004,-0.969 0.441,-1.171 l 1.245,-0.564 c 0.097,-0.044 0.198,-0.069 0.298,-0.077 0.36,-0.027 0.715,0.17 0.873,0.518 l 0.467,1.032 c 0.323,-0.068 0.654,-0.117 0.992,-0.143 0.338,-0.026 0.672,-0.028 1.001,-0.008 L 1.16,-3.034 c 0.103,-0.368 0.424,-0.617 0.785,-0.645 0.1,-0.007 0.203,0.002 0.305,0.032 l 1.317,0.368 c 0.471,0.132 0.745,0.62 0.613,1.091 l -0.305,1.09 c 0.592,0.315 1.139,0.706 1.624,1.165 l 0.936,-0.639 c 0.132,-0.091 0.281,-0.141 0.431,-0.152 0.304,-0.023 0.613,0.113 0.798,0.383 L 8.436,0.787 C 8.711,1.191 8.608,1.741 8.205,2.018" /></g></g></g></g></svg>
