<?xml version="1.0" encoding="UTF-8" standalone="no"?>
<svg
   xmlns:dc="http://purl.org/dc/elements/1.1/"
   xmlns:cc="http://creativecommons.org/ns#"
   xmlns:rdf="http://www.w3.org/1999/02/22-rdf-syntax-ns#"
   xmlns:svg="http://www.w3.org/2000/svg"
   xmlns="http://www.w3.org/2000/svg"
   viewBox="0 0 186.29201 139.50267"
   height="139.50267"
   width="186.29201"
   xml:space="preserve"
   id="svg2"
   version="1.1"><metadata
     id="metadata8"><rdf:RDF><cc:Work
         rdf:about=""><dc:format>image/svg+xml</dc:format><dc:type
           rdf:resource="http://purl.org/dc/dcmitype/StillImage" /></cc:Work></rdf:RDF></metadata><defs
     id="defs6"><clipPath
       id="clipPath18"
       clipPathUnits="userSpaceOnUse"><path
         id="path16"
         d="M 0,104.627 H 139.719 V 0 H 0 Z" /></clipPath></defs><g
     transform="matrix(1.9debde3,0,0,-1.9debde3,0,139.50267)"
     id="g10"><g
       id="g12"><g
         clip-path="url(#clipPath18)"
         id="g14"><g
           transform="translate(67.7784,45.5923)"
           id="g20"><path
             id="path22"
             style="fill:#9debde;fill-opacity:1;fill-rule:evenodd;stroke:none"
             d="m 0,0 c -0.409,-0.189 -0.731,-0.446 -0.966,-0.782 -0.241,-0.337 -0.358,-0.769 -0.366,-1.296 0.008,-0.49 0.11,-0.893 0.3,-1.207 0.198,-0.315 0.432,-0.57 0.718,-0.754 0.114,-0.078 0.229,-0.148 0.343,-0.214 0.162,-0.092 0.325,-0.171 0.484,-0.239 L 1.391,-4.888 V 0.381 C 0.883,0.316 0.432,0.189 0.029,0.014 Z" /></g><g
           transform="translate(73.1495,33.1099)"
           id="g24"><path
             id="path26"
             style="fill:#9debde;fill-opacity:1;fill-rule:evenodd;stroke:none"
             d="m 0,0 c -0.121,0.079 -0.24,0.152 -0.359,0.218 -0.155,0.085 -0.308,0.159 -0.46,0.221 L -1.698,0.79 v -5.663 c 0.515,0.107 0.963,0.272 1.339,0.494 0.238,0.139 0.448,0.302 0.63,0.486 C 0.739,-3.41 0.973,-2.788 0.98,-2.02 0.973,-1.5 0.878,-1.075 0.687,-0.761 0.505,-0.439 0.271,-0.183 0,0" /></g><g
           transform="translate(79.7706,27.9517)"
           id="g28"><path
             id="path30"
             style="fill:#9debde;fill-opacity:1;fill-rule:evenodd;stroke:none"
             d="M 0,0 C -0.438,-1.039 -1.067,-1.932 -1.873,-2.678 -2.685,-3.425 -3.636,-4.024 -4.727,-4.464 -5.433,-4.753 -6.185,-4.978 -6.98,-5.136 -7.414,-5.222 -7.859,-5.288 -8.319,-5.334 v -2.239 c -0.008,-0.315 -0.117,-0.585 -0.322,-0.798 -0.213,-0.22 -0.483,-0.336 -0.82,-0.344 -0.336,0.008 -0.607,0.124 -0.819,0.344 -0.204,0.213 -0.315,0.483 -0.322,0.798 v 2.151 c -0.44,0.008 -0.893,0.035 -1.361,0.079 -0.325,0.031 -0.656,0.071 -0.995,0.118 -0.827,0.11 -1.632,0.271 -2.422,0.491 -0.79,0.219 -1.5,0.49 -2.143,0.819 -0.644,0.329 -1.157,0.718 -1.538,1.164 -0.379,0.453 -0.578,0.966 -0.585,1.543 0,0.41 0.103,0.82 0.323,1.244 0.212,0.425 0.549,0.776 0.994,1.068 0.454,0.292 1.04,0.439 1.757,0.455 0.453,-0.008 0.899,-0.074 1.331,-0.198 0.431,-0.125 0.879,-0.271 1.34,-0.439 0.461,-0.168 0.958,-0.329 1.5,-0.476 0.14,-0.039 0.287,-0.074 0.438,-0.105 0.418,-0.088 0.872,-0.15 1.361,-0.188 v 6.542 c -0.454,0.139 -0.908,0.287 -1.361,0.442 -0.402,0.135 -0.805,0.277 -1.207,0.422 -0.856,0.306 -1.668,0.672 -2.436,1.089 -0.769,0.417 -1.456,0.922 -2.056,1.522 -0.594,0.593 -1.069,1.317 -1.413,2.166 -0.344,0.842 -0.52,1.844 -0.527,3.008 0.007,1.676 0.381,3.109 1.105,4.309 0.725,1.201 1.764,2.136 3.102,2.81 1.005,0.508 2.148,0.856 3.432,1.043 0.438,0.063 0.891,0.109 1.361,0.135 v 2.195 c 0.007,0.314 0.124,0.585 0.344,0.805 0.212,0.213 0.483,0.33 0.797,0.337 0.315,-0.007 0.586,-0.124 0.806,-0.337 0.212,-0.22 0.328,-0.491 0.336,-0.805 v -2.195 c 0.425,-0.021 0.873,-0.059 1.339,-0.114 0.206,-0.024 0.416,-0.052 0.629,-0.084 0.696,-0.095 1.383,-0.234 2.064,-0.423 0.673,-0.184 1.295,-0.425 1.851,-0.718 0.556,-0.292 0.995,-0.658 1.332,-1.09 0.336,-0.425 0.504,-0.937 0.511,-1.523 C -0.6,19.185 -0.731,18.731 -0.987,18.321 -1.244,17.912 -1.602,17.59 -2.056,17.341 -2.51,17.1 -3.029,16.975 -3.621,16.968 c -0.388,0.007 -0.739,0.052 -1.055,0.146 -0.313,0.095 -0.636,0.205 -0.965,0.337 -0.329,0.132 -0.703,0.256 -1.127,0.373 -0.068,0.018 -0.139,0.034 -0.212,0.051 -0.381,0.086 -0.83,0.154 -1.339,0.19 v -6.146 c 0.453,-0.148 0.898,-0.296 1.339,-0.446 0.457,-0.156 0.907,-0.313 1.354,-0.469 0.871,-0.315 1.69,-0.673 2.45,-1.068 C -2.422,9.533 -1.748,9.051 -1.17,8.487 -0.593,7.924 -0.146,7.244 0.184,6.432 0.513,5.627 0.674,4.66 0.681,3.533 0.674,2.217 0.446,1.039 0,0 m -10.163,34.895 c -14.228,0 -25.762,-11.536 -25.762,-25.764 0,-14.228 11.534,-25.762 25.762,-25.762 14.228,0 25.763,11.534 25.763,25.762 0,14.228 -11.535,25.764 -25.763,25.764" /></g><g
           transform="translate(9.3595,15.3531)"
           id="g32"><path
             id="path34"
             style="fill:#9debde;fill-opacity:1;fill-rule:nonzero;stroke:none"
             d="m 0,0 c -0.169,-0.077 -0.301,-0.185 -0.398,-0.323 -0.099,-0.139 -0.151,-0.317 -0.151,-0.533 0,-0.203 0.044,-0.37 0.123,-0.498 0.08,-0.131 0.18,-0.234 0.296,-0.311 0.048,-0.031 0.095,-0.061 0.142,-0.087 0.067,-0.038 0.134,-0.071 0.199,-0.101 L 0.573,-2.015 V 0.157 C 0.363,0.13 0.177,0.079 0.012,0.005 Z" /></g><g
           transform="translate(130.2501,10.2076)"
           id="g36"><path
             id="path38"
             style="fill:#9debde;fill-opacity:1;fill-rule:nonzero;stroke:none"
             d="m 0,0 c -0.05,0.032 -0.099,0.062 -0.148,0.09 -0.064,0.035 -0.127,0.065 -0.19,0.091 L -0.7,0.325 V -2.01 c 0.213,0.045 0.397,0.114 0.552,0.204 0.098,0.058 0.185,0.124 0.259,0.201 0.194,0.198 0.293,0.456 0.293,0.772 0,0.214 -0.044,0.388 -0.121,0.519 C 0.207,-0.183 0.111,-0.075 0,0" /></g><g
           transform="translate(11.5733,10.2076)"
           id="g40"><path
             id="path42"
             style="fill:#9debde;fill-opacity:1;fill-rule:nonzero;stroke:none"
             d="M 0,0 C -0.05,0.032 -0.099,0.062 -0.147,0.09 -0.211,0.125 -0.274,0.155 -0.338,0.181 L -0.7,0.325 V -2.01 c 0.213,0.045 0.397,0.113 0.553,0.203 0.097,0.058 0.184,0.125 0.258,0.202 0.195,0.198 0.293,0.456 0.293,0.772 0,0.214 -0.044,0.388 -0.121,0.519 C 0.206,-0.183 0.112,-0.075 0,0" /></g><g
           transform="translate(9.9327,65.7955)"
           id="g44"><path
             id="path46"
             style="fill:#9debde;fill-opacity:1;fill-rule:nonzero;stroke:none"
             d="m 0,0 c -0.21,-0.027 -0.396,-0.078 -0.562,-0.152 l -0.011,-0.005 c -0.169,-0.077 -0.301,-0.185 -0.399,-0.323 -0.098,-0.139 -0.15,-0.317 -0.15,-0.535 0,-0.202 0.044,-0.368 0.123,-0.497 0.08,-0.131 0.18,-0.234 0.296,-0.31 0.048,-0.032 0.095,-0.061 0.141,-0.087 0.068,-0.038 0.134,-0.071 0.2,-0.101 L 0,-2.172 Z" /></g><g
           transform="translate(128.0362,15.3531)"
           id="g48"><path
             id="path50"
             style="fill:#9debde;fill-opacity:1;fill-rule:nonzero;stroke:none"
             d="m 0,0 c -0.17,-0.077 -0.301,-0.185 -0.398,-0.323 -0.099,-0.139 -0.151,-0.317 -0.151,-0.533 0,-0.203 0.044,-0.37 0.123,-0.498 0.08,-0.131 0.179,-0.234 0.296,-0.311 0.047,-0.031 0.095,-0.061 0.142,-0.087 0.067,-0.038 0.134,-0.071 0.199,-0.101 L 0.573,-2.015 V 0.157 C 0.363,0.13 0.177,0.079 0.012,0.005 Z" /></g><g
           transform="translate(130.2501,60.4927)"
           id="g52"><path
             id="path54"
             style="fill:#9debde;fill-opacity:1;fill-rule:nonzero;stroke:none"
             d="m 0,0 c -0.05,0.032 -0.099,0.062 -0.148,0.09 -0.064,0.035 -0.127,0.064 -0.19,0.09 L -0.7,0.325 V -2.01 c 0.213,0.045 0.397,0.113 0.552,0.203 0.098,0.058 0.185,0.125 0.259,0.202 0.194,0.197 0.293,0.455 0.293,0.772 0,0.214 -0.044,0.388 -0.121,0.519 C 0.207,-0.183 0.111,-0.075 0,0" /></g><g
           transform="translate(11.6846,58.8873)"
           id="g56"><path
             id="path58"
             style="fill:#9debde;fill-opacity:1;fill-rule:nonzero;stroke:none"
             d="M 0,0 C 0.194,0.197 0.293,0.455 0.293,0.772 0.293,0.986 0.249,1.16 0.172,1.291 0.095,1.423 0.001,1.53 -0.111,1.605 -0.161,1.638 -0.21,1.668 -0.259,1.695 -0.322,1.73 -0.386,1.76 -0.449,1.785 l -0.363,0.146 v -2.335 c 0.213,0.045 0.398,0.112 0.553,0.203 C -0.161,-0.144 -0.074,-0.076 0,0" /></g><g
           transform="translate(132.9796,58.3648)"
           id="g60"><path
             id="path62"
             style="fill:#9debde;fill-opacity:1;fill-rule:nonzero;stroke:none"
             d="M 0,0 C -0.182,-0.427 -0.439,-0.797 -0.771,-1.104 -1.105,-1.411 -1.5,-1.657 -1.948,-1.84 -2.239,-1.958 -2.55,-2.051 -2.878,-2.116 -3.056,-2.151 -3.24,-2.179 -3.43,-2.198 v -0.924 c 0,-0.129 -0.048,-0.24 -0.133,-0.328 -0.086,-0.091 -0.199,-0.142 -0.337,-0.142 -0.139,0 -0.25,0.051 -0.338,0.142 -0.084,0.088 -0.132,0.199 -0.132,0.328 v 0.888 c -0.182,0.003 -0.369,0.014 -0.562,0.033 -0.133,0.013 -0.27,0.028 -0.41,0.048 -0.341,0.047 -0.673,0.111 -0.998,0.202 -0.326,0.091 -0.619,0.202 -0.884,0.338 -0.265,0.135 -0.477,0.295 -0.633,0.479 -0.158,0.187 -0.241,0.399 -0.243,0.637 -0.001,0.169 0.044,0.338 0.134,0.513 0.088,0.174 0.226,0.32 0.41,0.44 0.187,0.121 0.428,0.186 0.724,0.188 0.187,0.001 0.371,-0.032 0.549,-0.082 0.178,-0.051 0.362,-0.112 0.552,-0.181 0.19,-0.069 0.395,-0.136 0.619,-0.196 0.057,-0.016 0.118,-0.031 0.18,-0.044 0.172,-0.037 0.36,-0.062 0.562,-0.078 v 2.698 c -0.188,0.057 -0.375,0.118 -0.562,0.181 -0.166,0.057 -0.332,0.115 -0.498,0.174 -0.352,0.127 -0.687,0.278 -1.004,0.449 -0.317,0.173 -0.6,0.381 -0.847,0.628 -0.245,0.244 -0.441,0.543 -0.582,0.893 -0.142,0.347 -0.218,0.761 -0.218,1.239 0,0.692 0.157,1.283 0.456,1.778 0.298,0.494 0.728,0.879 1.278,1.158 0.414,0.209 0.886,0.353 1.415,0.43 0.18,0.027 0.368,0.044 0.562,0.056 v 0.904 c 0,0.13 0.051,0.243 0.141,0.332 0.087,0.087 0.2,0.139 0.329,0.139 0.129,0 0.243,-0.05 0.332,-0.139 0.089,-0.088 0.138,-0.202 0.138,-0.332 V 9.747 c 0.176,-0.009 0.361,-0.025 0.552,-0.048 0.086,-0.011 0.172,-0.021 0.26,-0.034 0.286,-0.041 0.57,-0.098 0.85,-0.175 0.278,-0.076 0.535,-0.175 0.764,-0.296 0.229,-0.12 0.409,-0.272 0.549,-0.449 0.138,-0.176 0.211,-0.386 0.211,-0.627 0,-0.209 -0.058,-0.395 -0.163,-0.564 C -0.513,7.385 -0.66,7.251 -0.848,7.149 -1.034,7.049 -1.249,6.995 -1.493,6.995 c -0.16,0 -0.305,0.022 -0.435,0.061 -0.129,0.039 -0.261,0.085 -0.397,0.138 -0.136,0.055 -0.289,0.108 -0.465,0.155 L -2.878,7.37 C -3.034,7.405 -3.22,7.433 -3.43,7.448 V 4.915 C -3.243,4.854 -3.06,4.792 -2.878,4.731 -2.689,4.667 -2.503,4.603 -2.319,4.537 -1.96,4.409 -1.622,4.262 -1.309,4.097 -0.997,3.933 -0.721,3.731 -0.482,3.5 -0.244,3.267 -0.061,2.986 0.075,2.652 0.211,2.32 0.28,1.922 0.28,1.458 0.28,0.915 0.183,0.43 0,0 m 0,-50.284 c -0.182,-0.428 -0.439,-0.797 -0.771,-1.104 -0.334,-0.308 -0.729,-0.554 -1.177,-0.736 -0.291,-0.118 -0.602,-0.211 -0.93,-0.276 -0.178,-0.037 -0.362,-0.064 -0.552,-0.083 v -0.923 c 0,-0.13 -0.048,-0.241 -0.133,-0.329 -0.086,-0.09 -0.199,-0.142 -0.337,-0.142 -0.139,0 -0.25,0.052 -0.338,0.142 -0.084,0.088 -0.132,0.199 -0.132,0.329 v 0.886 c -0.182,0.004 -0.369,0.015 -0.562,0.034 -0.133,0.012 -0.27,0.028 -0.41,0.048 -0.341,0.046 -0.673,0.112 -0.998,0.202 -0.326,0.09 -0.619,0.202 -0.884,0.338 -0.265,0.135 -0.477,0.295 -0.633,0.479 -0.158,0.187 -0.241,0.398 -0.243,0.637 -0.001,0.169 0.044,0.338 0.134,0.513 0.088,0.174 0.226,0.321 0.41,0.44 0.187,0.121 0.428,0.185 0.724,0.187 0.187,0.001 0.371,-0.03 0.549,-0.082 0.178,-0.05 0.362,-0.111 0.552,-0.18 0.19,-0.07 0.395,-0.136 0.619,-0.197 0.057,-0.015 0.118,-0.03 0.18,-0.043 0.172,-0.036 0.36,-0.062 0.562,-0.077 v 2.697 c -0.188,0.057 -0.375,0.119 -0.562,0.181 -0.166,0.057 -0.332,0.115 -0.498,0.174 -0.352,0.127 -0.687,0.278 -1.004,0.45 -0.317,0.172 -0.6,0.38 -0.847,0.628 -0.245,0.244 -0.441,0.543 -0.582,0.893 -0.142,0.346 -0.218,0.76 -0.218,1.239 0,0.69 0.157,1.282 0.456,1.776 0.298,0.495 0.728,0.881 1.278,1.159 0.414,0.209 0.886,0.353 1.415,0.43 0.18,0.027 0.368,0.045 0.562,0.056 v 0.905 c 0,0.129 0.051,0.241 0.141,0.331 0.087,0.088 0.2,0.139 0.329,0.139 0.129,0 0.243,-0.05 0.332,-0.139 0.089,-0.089 0.138,-0.201 0.138,-0.331 v -0.905 c 0.176,-0.009 0.361,-0.025 0.552,-0.048 0.086,-0.01 0.172,-0.021 0.26,-0.034 0.286,-0.04 0.57,-0.098 0.85,-0.174 0.278,-0.077 0.535,-0.176 0.764,-0.297 0.229,-0.12 0.409,-0.271 0.549,-0.449 0.138,-0.176 0.211,-0.386 0.211,-0.627 0,-0.209 -0.058,-0.396 -0.163,-0.564 -0.106,-0.169 -0.253,-0.303 -0.441,-0.405 -0.186,-0.1 -0.401,-0.153 -0.645,-0.153 -0.16,0 -0.305,0.02 -0.435,0.06 -0.129,0.039 -0.261,0.085 -0.397,0.139 -0.136,0.054 -0.289,0.107 -0.465,0.153 l -0.088,0.022 c -0.156,0.036 -0.342,0.062 -0.552,0.078 v -2.533 c 0.187,-0.061 0.37,-0.122 0.552,-0.184 0.189,-0.064 0.375,-0.129 0.559,-0.193 0.359,-0.128 0.697,-0.276 1.01,-0.441 0.312,-0.164 0.588,-0.366 0.827,-0.597 0.238,-0.233 0.421,-0.513 0.557,-0.848 0.136,-0.331 0.205,-0.73 0.205,-1.194 0,-0.543 -0.097,-1.028 -0.28,-1.457 m -19.719,-0.585 h -86.802 c -2.652,9.379 -10.147,16.723 -19.619,19.147 v 20.882 c 9.472,2.425 16.966,9.769 19.619,19.146 h 86.802 C -17.067,-1.072 -9.571,-8.416 -0.1,-10.84 v -20.882 c -9.472,-2.424 -16.967,-9.768 -19.619,-19.147 m -98.958,0.585 c -0.181,-0.428 -0.439,-0.797 -0.771,-1.104 -0.334,-0.308 -0.728,-0.554 -1.177,-0.736 -0.291,-0.118 -0.602,-0.211 -0.929,-0.276 -0.178,-0.037 -0.363,-0.064 -0.552,-0.083 v -0.923 c 0,-0.13 -0.048,-0.241 -0.132,-0.329 -0.088,-0.09 -0.2,-0.142 -0.338,-0.142 -0.14,0 -0.251,0.052 -0.338,0.142 -0.085,0.088 -0.133,0.199 -0.133,0.329 v 0.886 c -0.182,0.004 -0.369,0.015 -0.561,0.034 -0.134,0.012 -0.271,0.028 -0.411,0.048 -0.34,0.046 -0.672,0.112 -0.998,0.202 -0.326,0.09 -0.619,0.202 -0.883,0.338 -0.266,0.135 -0.478,0.295 -0.634,0.479 -0.157,0.187 -0.239,0.398 -0.241,0.637 -10e-4,0.169 0.044,0.338 0.132,0.513 0.089,0.174 0.226,0.321 0.411,0.44 0.186,0.121 0.428,0.185 0.723,0.187 0.188,0.001 0.371,-0.03 0.55,-0.082 0.178,-0.05 0.361,-0.111 0.552,-0.18 0.189,-0.07 0.394,-0.136 0.618,-0.197 0.059,-0.015 0.118,-0.03 0.181,-0.043 0.172,-0.036 0.359,-0.062 0.561,-0.077 v 2.697 c -0.187,0.057 -0.374,0.119 -0.561,0.181 -0.166,0.057 -0.332,0.115 -0.497,0.174 -0.354,0.127 -0.689,0.278 -1.005,0.45 -0.317,0.172 -0.601,0.38 -0.848,0.628 -0.244,0.244 -0.44,0.543 -0.582,0.893 -0.142,0.346 -0.218,0.76 -0.218,1.239 0,0.69 0.157,1.282 0.456,1.776 0.298,0.495 0.728,0.881 1.28,1.159 0.414,0.209 0.884,0.353 1.414,0.43 0.18,0.027 0.367,0.045 0.561,0.056 v 0.905 c 0,0.129 0.052,0.241 0.142,0.331 0.087,0.088 0.199,0.139 0.329,0.139 0.129,0 0.242,-0.05 0.331,-0.139 0.089,-0.089 0.139,-0.201 0.139,-0.331 v -0.905 c 0.175,-0.009 0.36,-0.025 0.552,-0.048 0.085,-0.01 0.171,-0.021 0.259,-0.034 0.287,-0.04 0.57,-0.098 0.852,-0.174 0.276,-0.077 0.533,-0.176 0.762,-0.297 0.229,-0.12 0.41,-0.271 0.549,-0.449 0.139,-0.176 0.211,-0.386 0.211,-0.627 0,-0.209 -0.058,-0.396 -0.162,-0.564 -0.106,-0.169 -0.253,-0.303 -0.441,-0.405 -0.186,-0.1 -0.401,-0.153 -0.646,-0.153 -0.159,0 -0.305,0.02 -0.434,0.06 -0.129,0.039 -0.262,0.085 -0.398,0.139 -0.136,0.054 -0.289,0.107 -0.464,0.153 l -0.088,0.022 c -0.157,0.036 -0.342,0.062 -0.552,0.078 v -2.533 c 0.186,-0.061 0.37,-0.122 0.552,-0.184 0.188,-0.064 0.374,-0.129 0.558,-0.193 0.359,-0.128 0.698,-0.276 1.011,-0.441 0.311,-0.164 0.589,-0.366 0.826,-0.597 0.238,-0.233 0.423,-0.513 0.558,-0.848 0.135,-0.331 0.205,-0.73 0.205,-1.194 0,-0.543 -0.098,-1.028 -0.281,-1.457 m -4.931,53.226 c -0.166,0.057 -0.332,0.115 -0.497,0.174 -0.354,0.127 -0.689,0.278 -1.005,0.449 -0.317,0.173 -0.601,0.381 -0.848,0.628 -0.244,0.244 -0.44,0.543 -0.582,0.893 -0.142,0.347 -0.218,0.761 -0.218,1.239 0,0.692 0.157,1.283 0.456,1.778 0.298,0.494 0.728,0.879 1.28,1.158 0.414,0.209 0.884,0.353 1.414,0.43 0.18,0.027 0.367,0.044 0.561,0.056 v 0.904 c 0,0.13 0.052,0.243 0.142,0.332 0.087,0.087 0.199,0.139 0.329,0.139 0.129,0 0.242,-0.05 0.331,-0.139 0.089,-0.088 0.139,-0.202 0.139,-0.332 V 9.747 c 0.175,-0.009 0.36,-0.025 0.552,-0.048 0.085,-0.011 0.171,-0.021 0.259,-0.034 0.287,-0.041 0.57,-0.098 0.852,-0.175 0.276,-0.076 0.533,-0.175 0.762,-0.296 0.229,-0.12 0.41,-0.272 0.549,-0.449 0.139,-0.176 0.211,-0.386 0.211,-0.627 0,-0.209 -0.058,-0.395 -0.162,-0.564 -0.106,-0.169 -0.253,-0.303 -0.441,-0.405 -0.186,-0.1 -0.401,-0.154 -0.646,-0.154 -0.159,0 -0.305,0.022 -0.434,0.061 -0.129,0.039 -0.262,0.085 -0.398,0.138 -0.136,0.055 -0.289,0.108 -0.464,0.155 l -0.088,0.021 c -0.157,0.036 -0.342,0.063 -0.552,0.078 V 4.915 c 0.186,-0.061 0.37,-0.123 0.552,-0.184 0.188,-0.064 0.374,-0.128 0.558,-0.194 0.359,-0.128 0.698,-0.275 1.011,-0.44 0.311,-0.164 0.589,-0.366 0.826,-0.597 0.238,-0.233 0.423,-0.514 0.558,-0.848 0.135,-0.332 0.205,-0.73 0.205,-1.194 0,-0.543 -0.098,-1.028 -0.281,-1.458 -0.181,-0.427 -0.439,-0.797 -0.771,-1.104 -0.334,-0.307 -0.728,-0.553 -1.177,-0.736 -0.291,-0.118 -0.602,-0.211 -0.929,-0.276 -0.178,-0.035 -0.363,-0.063 -0.552,-0.082 v -0.924 c 0,-0.129 -0.048,-0.24 -0.132,-0.328 -0.088,-0.091 -0.2,-0.142 -0.338,-0.142 -0.14,0 -0.251,0.051 -0.338,0.142 -0.085,0.088 -0.133,0.199 -0.133,0.328 v 0.888 c -0.182,0.003 -0.369,0.014 -0.561,0.033 -0.134,0.013 -0.271,0.028 -0.411,0.048 -0.34,0.047 -0.672,0.111 -0.998,0.202 -0.326,0.091 -0.619,0.202 -0.883,0.338 -0.266,0.135 -0.478,0.295 -0.634,0.479 -0.157,0.187 -0.239,0.399 -0.241,0.637 -10e-4,0.169 0.044,0.338 0.132,0.513 0.089,0.174 0.226,0.32 0.411,0.44 0.186,0.121 0.428,0.186 0.723,0.188 0.188,0.001 0.371,-0.032 0.55,-0.082 0.178,-0.051 0.361,-0.112 0.552,-0.181 0.189,-0.069 0.394,-0.136 0.618,-0.196 0.059,-0.016 0.118,-0.031 0.181,-0.044 0.172,-0.037 0.359,-0.062 0.561,-0.078 v 2.698 c -0.187,0.057 -0.374,0.118 -0.561,0.181 m 102.846,12.86 h -84.717 -27.5 v -27.5 -19.166 -27.501 h 27.5 84.717 27.501 v 27.501 19.166 27.5 z" /></g><g
           transform="translate(128.0362,65.6382)"
           id="g64"><path
             id="path66"
             style="fill:#9debde;fill-opacity:1;fill-rule:nonzero;stroke:none"
             d="m 0,0 c -0.17,-0.077 -0.301,-0.185 -0.398,-0.323 -0.099,-0.139 -0.151,-0.317 -0.151,-0.534 0,-0.203 0.044,-0.369 0.123,-0.497 0.08,-0.131 0.179,-0.235 0.296,-0.311 0.047,-0.031 0.095,-0.061 0.142,-0.087 0.067,-0.038 0.134,-0.071 0.199,-0.101 L 0.573,-2.015 V 0.157 C 0.363,0.13 0.177,0.079 0.012,0.005 Z" /></g><path
           id="path68"
           style="fill:#9debde;fill-opacity:1;fill-rule:evenodd;stroke:none"
           d="M 0,80.339 H 139.719 V 77.154 H 0 Z" /><path
           id="path70"
           style="fill:#9debde;fill-opacity:1;fill-rule:evenodd;stroke:none"
           d="M 0,86.412 H 139.719 V 83.226 H 0 Z" /><path
           id="path72"
           style="fill:#9debde;fill-opacity:1;fill-rule:evenodd;stroke:none"
           d="M 0,92.483 H 139.719 V 89.297 H 0 Z" /><path
           id="path74"
           style="fill:#9debde;fill-opacity:1;fill-rule:evenodd;stroke:none"
           d="M 0,98.555 H 139.719 V 95.369 H 0 Z" /><path
           id="path76"
           style="fill:#9debde;fill-opacity:1;fill-rule:evenodd;stroke:none"
           d="m 0,104.627 h 139.719 v -3.185 H 0 Z" /></g></g></g></svg>
