<?xml version="1.0" encoding="UTF-8" standalone="no"?>
<svg
   xmlns:dc="http://purl.org/dc/elements/1.1/"
   xmlns:cc="http://creativecommons.org/ns#"
   xmlns:rdf="http://www.w3.org/1999/02/22-rdf-syntax-ns#"
   xmlns:svg="http://www.w3.org/2000/svg"
   xmlns="http://www.w3.org/2000/svg"
   viewBox="0 0 66.237198 58.2976"
   height="58.2976"
   width="66.237198"
   xml:space="preserve"
   id="svg2"
   version="1.1"><metadata
     id="metadata8"><rdf:RDF><cc:Work
         rdf:about=""><dc:format>image/svg+xml</dc:format><dc:type
           rdf:resource="http://purl.org/dc/dcmitype/StillImage" /></cc:Work></rdf:RDF></metadata><defs
     id="defs6"><clipPath
       id="clipPath18"
       clipPathUnits="userSpaceOnUse"><path
         id="path16"
         d="M 0,43.723 H 49.678 V 0 H 0 Z" /></clipPath></defs><g
     transform="matrix(1.3333333,0,0,-1.3333333,0,58.2976)"
     id="g10"><g
       id="g12"><g
         clip-path="url(#clipPath18)"
         id="g14"><g
           transform="translate(36.7834,1.9884)"
           id="g20"><path
             id="path22"
             style="fill:#9debde;fill-opacity:1;fill-rule:nonzero;stroke:none"
             d="m 0,0 c -0.91,0 -1.646,0.743 -1.646,1.651 0,0.916 0.736,1.654 1.646,1.654 0.916,0 1.652,-0.738 1.652,-1.654 C 1.66,0.743 0.916,0 0,0 m -18.815,26.864 c 0.862,3.085 0.078,6.521 -2.341,8.94 -2.403,2.405 -5.811,3.187 -8.871,2.357 l 5.183,-5.183 -1.355,-5.073 -5.081,-1.363 -5.183,5.183 c -0.83,-3.06 -0.046,-6.458 2.357,-8.869 2.521,-2.522 6.153,-3.257 9.324,-2.225 l 0.032,-0.03 21.329,-21.321 c 0.836,-0.845 1.948,-1.268 3.052,-1.268 1.105,0 2.209,0.423 3.053,1.268 1.684,1.676 1.684,4.416 0,6.108 z" /></g><g
           transform="translate(37.9284,26.9025)"
           id="g24"><path
             id="path26"
             style="fill:#9debde;fill-opacity:1;fill-rule:nonzero;stroke:none"
             d="m 0,0 c -2.798,0 -5.072,2.273 -5.072,5.072 0,2.798 2.274,5.072 5.072,5.072 2.799,0 5.072,-2.274 5.072,-5.072 C 5.072,2.273 2.799,0 0,0 m 10.546,7.536 -1.65,0.28 C 8.725,8.371 8.504,8.906 8.234,9.417 l 0.972,1.36 c 0.412,0.579 0.349,1.369 -0.157,1.87 L 7.586,14.11 c -0.275,0.276 -0.639,0.428 -1.026,0.428 -0.305,0 -0.595,-0.094 -0.84,-0.27 L 4.355,13.295 c -0.53,0.28 -1.085,0.511 -1.659,0.683 l -0.275,1.63 C 2.303,16.31 1.699,16.821 0.987,16.821 H -1.08 c -0.712,0 -1.316,-0.511 -1.434,-1.213 l -0.284,-1.67 c -0.55,-0.171 -1.086,-0.397 -1.596,-0.672 l -1.35,0.972 c -0.246,0.177 -0.54,0.27 -0.845,0.27 -0.388,0 -0.756,-0.152 -1.026,-0.427 L -9.083,12.618 C -9.584,12.117 -9.653,11.327 -9.24,10.747 L -8.258,9.368 C -8.528,8.852 -8.744,8.317 -8.911,7.762 l -1.63,-0.275 C -11.243,7.37 -11.754,6.766 -11.754,6.054 V 3.986 c 0,-0.711 0.511,-1.315 1.213,-1.433 L -8.872,2.268 C -8.7,1.718 -8.474,1.183 -8.199,0.672 l -0.968,-1.345 c -0.412,-0.579 -0.348,-1.369 0.158,-1.87 l 1.463,-1.463 c 0.275,-0.275 0.638,-0.428 1.026,-0.428 0.304,0 0.594,0.094 0.84,0.27 l 1.379,0.982 c 0.496,-0.26 1.016,-0.471 1.551,-0.638 l 0.275,-1.65 c 0.119,-0.702 0.723,-1.213 1.434,-1.213 h 2.072 c 0.712,0 1.316,0.511 1.434,1.213 l 0.28,1.65 c 0.555,0.172 1.089,0.393 1.6,0.663 l 1.361,-0.972 c 0.245,-0.177 0.54,-0.27 0.844,-0.27 0.387,0 0.751,0.152 1.026,0.427 l 1.463,1.463 c 0.501,0.501 0.569,1.291 0.157,1.87 L 8.224,0.727 c 0.27,0.515 0.496,1.05 0.663,1.6 l 1.65,0.275 c 0.702,0.118 1.213,0.722 1.213,1.434 v 2.067 c 0.009,0.711 -0.501,1.315 -1.204,1.433" /></g></g></g></g></svg>
